<?xml version="1.0" encoding="UTF-8"?>
<svg xmlns="http://www.w3.org/2000/svg" viewBox="0 0 256 256">
<defs><radialGradient id="rock" cx="0.36" cy="0.3" r="0.8"><stop offset="0" stop-color="#7a5a50"/><stop offset="0.55" stop-color="#3e2a26"/><stop offset="1" stop-color="#140a08"/></radialGradient></defs>
<g id="base" stroke="#1a0805" stroke-width="3" stroke-linejoin="round" stroke-linecap="round"><path d="M71.05 33.66 Q115.12 15 155.85 42.69 Q196.59 70.37 217.41 96.17 Q238.23 121.96 220.04 161.28 Q201.84 200.59 159.08 220.79 Q116.32 241 78 219.47 Q39.68 197.94 28.72 162.03 Q17.77 126.12 22.38 89.22 Q26.99 52.32 71.05 33.66 Z" fill="url(#rock)"/><path d="M93.16 67.35 Q124.89 53.92 154.22 73.85 Q183.54 93.79 198.54 112.36 Q213.53 130.93 200.43 159.24 Q187.32 187.54 156.54 202.09 Q125.75 216.64 98.16 201.14 Q70.57 185.64 62.68 159.78 Q54.79 133.93 58.11 107.36 Q61.43 80.79 93.16 67.35 Z" fill="#000000" fill-opacity="0.2" stroke="none"/><path d="M86.53 65.83 Q108.56 56.5 128.93 70.34 Q149.29 84.19 159.71 97.08 Q170.12 109.98 161.02 129.64 Q151.92 149.29 130.54 159.4 Q109.16 169.5 90 158.74 Q70.84 147.97 65.36 130.02 Q59.88 112.06 62.19 93.61 Q64.49 75.16 86.53 65.83 Z" fill="#ffffff" fill-opacity="0.1" stroke="none"/><path d="M174.19 109.61 L187.58 121.05 L190.72 136.12 L174.19 141.32 L158.82 132.59 L154.7 119.15 Z" fill="#1a0d0a" fill-opacity="0.45" stroke="none"/><path d="M152.86 77.49 L138.9 78.46 L125.95 73.15 L116.81 62.54 L109.66 50.5 L111.76 36.66 M178.76 149.29 L171.45 161.24 L158.79 167.22 L145.27 170.82 L132.43 165.23 L118.69 162.53 M86.85 188.88 L98.4 180.97 L107.98 170.76 L120.79 165.11 L131.5 156.1 L142.92 147.99 M165.45 160.69 L174.73 171.17 L187.84 176.07 L201.69 174.01 M114.4 187.54 L126.85 181.13 L140.01 176.36 L154.01 175.94 L166.4 169.43 L176.63 159.87" fill="none" stroke="#ff6a20" stroke-width="7" stroke-opacity="0.45"/><path d="M152.86 77.49 L138.9 78.46 L125.95 73.15 L116.81 62.54 L109.66 50.5 L111.76 36.66 M178.76 149.29 L171.45 161.24 L158.79 167.22 L145.27 170.82 L132.43 165.23 L118.69 162.53 M86.85 188.88 L98.4 180.97 L107.98 170.76 L120.79 165.11 L131.5 156.1 L142.92 147.99 M165.45 160.69 L174.73 171.17 L187.84 176.07 L201.69 174.01 M114.4 187.54 L126.85 181.13 L140.01 176.36 L154.01 175.94 L166.4 169.43 L176.63 159.87" fill="none" stroke="#ffb347" stroke-width="3"/><path d="M152.86 77.49 L138.9 78.46 L125.95 73.15 L116.81 62.54 L109.66 50.5 L111.76 36.66 M178.76 149.29 L171.45 161.24 L158.79 167.22 L145.27 170.82 L132.43 165.23 L118.69 162.53 M86.85 188.88 L98.4 180.97 L107.98 170.76 L120.79 165.11 L131.5 156.1 L142.92 147.99 M165.45 160.69 L174.73 171.17 L187.84 176.07 L201.69 174.01 M114.4 187.54 L126.85 181.13 L140.01 176.36 L154.01 175.94 L166.4 169.43 L176.63 159.87" fill="none" stroke="#fff0c0" stroke-width="1.2"/><path d="M71.05 33.66 Q115.12 15 155.85 42.69 Q196.59 70.37 217.41 96.17 Q238.23 121.96 220.04 161.28 Q201.84 200.59 159.08 220.79 Q116.32 241 78 219.47 Q39.68 197.94 28.72 162.03 Q17.77 126.12 22.38 89.22 Q26.99 52.32 71.05 33.66 Z" fill="none"/></g>
<g id="accent"/>
</svg>
