<?xml version="1.0" encoding="UTF-8"?>
<svg xmlns="http://www.w3.org/2000/svg" viewBox="0 0 256 256">
<defs><linearGradient id="accent-fill" x1="0" y1="0" x2="1" y2="1"><stop id="accent-light" offset="0" stop-color="#ffc4ac"/><stop id="accent-base" offset="0.5" stop-color="#ff9469"/><stop id="accent-dark" offset="1" stop-color="#99593f"/></linearGradient><linearGradient id="m3a24203050" x1="0" y1="0" x2="1" y2="1"><stop offset="0" stop-color="#756663"/><stop offset="0.45" stop-color="#3a2420"/><stop offset="1" stop-color="#1d1210"/></linearGradient><radialGradient id="b8a64584555" cx="0.35" cy="0.32" r="0.8"><stop offset="0" stop-color="#bfaaa3"/><stop offset="0.5" stop-color="#8a6458"/><stop offset="1" stop-color="#3e2d28"/></radialGradient><linearGradient id="d5a3a30" x1="0" y1="0" x2="1" y2="1"><stop offset="0" stop-color="#281a16"/><stop offset="0.55" stop-color="#5a3a30"/><stop offset="1" stop-color="#947f78"/></linearGradient></defs>
<g id="base" stroke="#1a0805" stroke-width="3" stroke-linejoin="round" stroke-linecap="round"><path d="M122 68 L134 68 L134 10 L122 10 Z" fill="url(#m3a24203050)" stroke-width="2"/><circle cx="128" cy="16" r="3.5" fill="#ffb347" stroke="none"/><path d="M145.42 70.27 L156.5 74.86 L178.7 21.28 L167.61 16.69 Z" fill="url(#m3a24203050)" stroke-width="2"/><circle cx="170.86" cy="24.53" r="3.5" fill="#ffb347" stroke="none"/><path d="M166.18 81.33 L174.67 89.82 L215.68 48.8 L207.2 40.32 Z" fill="url(#m3a24203050)" stroke-width="2"/><circle cx="207.2" cy="48.8" r="3.5" fill="#ffb347" stroke="none"/><path d="M181.14 99.5 L185.73 110.58 L239.31 88.39 L234.72 77.3 Z" fill="url(#m3a24203050)" stroke-width="2"/><circle cx="231.47" cy="85.14" r="3.5" fill="#ffb347" stroke="none"/><path d="M188 122 L188 134 L246 134 L246 122 Z" fill="url(#m3a24203050)" stroke-width="2"/><circle cx="240" cy="128" r="3.5" fill="#ffb347" stroke="none"/><path d="M185.73 145.42 L181.14 156.5 L234.72 178.7 L239.31 167.61 Z" fill="url(#m3a24203050)" stroke-width="2"/><circle cx="231.47" cy="170.86" r="3.5" fill="#ffb347" stroke="none"/><path d="M174.67 166.18 L166.18 174.67 L207.2 215.68 L215.68 207.2 Z" fill="url(#m3a24203050)" stroke-width="2"/><circle cx="207.2" cy="207.2" r="3.5" fill="#ffb347" stroke="none"/><path d="M156.5 181.14 L145.42 185.73 L167.61 239.31 L178.7 234.72 Z" fill="url(#m3a24203050)" stroke-width="2"/><circle cx="170.86" cy="231.47" r="3.5" fill="#ffb347" stroke="none"/><path d="M134 188 L122 188 L122 246 L134 246 Z" fill="url(#m3a24203050)" stroke-width="2"/><circle cx="128" cy="240" r="3.5" fill="#ffb347" stroke="none"/><path d="M110.58 185.73 L99.5 181.14 L77.3 234.72 L88.39 239.31 Z" fill="url(#m3a24203050)" stroke-width="2"/><circle cx="85.14" cy="231.47" r="3.5" fill="#ffb347" stroke="none"/><path d="M89.82 174.67 L81.33 166.18 L40.32 207.2 L48.8 215.68 Z" fill="url(#m3a24203050)" stroke-width="2"/><circle cx="48.8" cy="207.2" r="3.5" fill="#ffb347" stroke="none"/><path d="M74.86 156.5 L70.27 145.42 L16.69 167.61 L21.28 178.7 Z" fill="url(#m3a24203050)" stroke-width="2"/><circle cx="24.53" cy="170.86" r="3.5" fill="#ffb347" stroke="none"/><path d="M68 134 L68 122 L10 122 L10 134 Z" fill="url(#m3a24203050)" stroke-width="2"/><circle cx="16" cy="128" r="3.5" fill="#ffb347" stroke="none"/><path d="M70.27 110.58 L74.86 99.5 L21.28 77.3 L16.69 88.39 Z" fill="url(#m3a24203050)" stroke-width="2"/><circle cx="24.53" cy="85.14" r="3.5" fill="#ffb347" stroke="none"/><path d="M81.33 89.82 L89.82 81.33 L48.8 40.32 L40.32 48.8 Z" fill="url(#m3a24203050)" stroke-width="2"/><circle cx="48.8" cy="48.8" r="3.5" fill="#ffb347" stroke="none"/><path d="M99.5 74.86 L110.58 70.27 L88.39 16.69 L77.3 21.28 Z" fill="url(#m3a24203050)" stroke-width="2"/><circle cx="85.14" cy="24.53" r="3.5" fill="#ffb347" stroke="none"/><circle cx="128" cy="128" r="64" fill="url(#b8a64584555)"/><circle cx="128" cy="128" r="40" fill="url(#d5a3a30)" stroke-width="2"/></g>
<g id="accent" stroke="#1a0805" stroke-width="3" stroke-linejoin="round" stroke-linecap="round"><circle cx="128" cy="128" r="14" fill="url(#accent-fill)" stroke-width="2"/><circle cx="123.8" cy="123.8" r="4.2" fill="#ffffff" fill-opacity="0.7" stroke="none"/></g>
</svg>
