<?xml version="1.0" encoding="UTF-8"?>
<svg xmlns="http://www.w3.org/2000/svg" viewBox="0 0 256 256">
<defs><linearGradient id="accent-fill" x1="0" y1="0" x2="1" y2="1"><stop id="accent-light" offset="0" stop-color="#aefbf5"/><stop id="accent-base" offset="0.5" stop-color="#6cf8ec"/><stop id="accent-dark" offset="1" stop-color="#41958e"/></linearGradient><linearGradient id="m4f74864050" x1="0" y1="0" x2="1" y2="1"><stop offset="0" stop-color="#95acb6"/><stop offset="0.45" stop-color="#4f7486"/><stop offset="1" stop-color="#283a43"/></linearGradient><linearGradient id="solar" x1="0" y1="0" x2="1" y2="1"><stop offset="0" stop-color="#3f74a8"/><stop offset="0.5" stop-color="#1f3f6b"/><stop offset="1" stop-color="#0e1d33"/></linearGradient><linearGradient id="m8fb4c44050" x1="0" y1="0" x2="1" y2="1"><stop offset="0" stop-color="#bcd2dc"/><stop offset="0.45" stop-color="#8fb4c4"/><stop offset="1" stop-color="#485a62"/></linearGradient><linearGradient id="dc9d6df" x1="0" y1="0" x2="1" y2="1"><stop offset="0" stop-color="#5a6064"/><stop offset="0.55" stop-color="#c9d6df"/><stop offset="1" stop-color="#dce4ea"/></linearGradient><linearGradient id="m6f99ac4050" x1="0" y1="0" x2="1" y2="1"><stop offset="0" stop-color="#a9c2cd"/><stop offset="0.45" stop-color="#6f99ac"/><stop offset="1" stop-color="#384c56"/></linearGradient></defs>
<g id="base" stroke="#0b1722" stroke-width="3" stroke-linejoin="round" stroke-linecap="round"><path d="M92 122 L106 122 L106 134 L92 134 Z" fill="url(#m4f74864050)" stroke-width="2"/><path d="M150 122 L164 122 L164 134 L150 134 Z" fill="url(#m4f74864050)" stroke-width="2"/><path d="M12 98 L92 98 L92 158 L12 158 Z" fill="url(#solar)"/><path d="M25.33 98 L25.33 158 M38.67 98 L38.67 158 M52 98 L52 158 M65.33 98 L65.33 158 M78.67 98 L78.67 158 M12 128 L92 128" fill="none" stroke="#5d8fc4" stroke-width="2" stroke-opacity="0.8"/><path d="M12 98 L92 98 L92 104 L12 104 Z" fill="#ffffff" fill-opacity="0.18" stroke="none"/><path d="M164 98 L244 98 L244 158 L164 158 Z" fill="url(#solar)"/><path d="M177.33 98 L177.33 158 M190.67 98 L190.67 158 M204 98 L204 158 M217.33 98 L217.33 158 M230.67 98 L230.67 158 M164 128 L244 128" fill="none" stroke="#5d8fc4" stroke-width="2" stroke-opacity="0.8"/><path d="M164 98 L244 98 L244 104 L164 104 Z" fill="#ffffff" fill-opacity="0.18" stroke="none"/><path d="M125 158 L131 158 L131 176 L125 176 Z" fill="url(#m8fb4c44050)" stroke-width="2"/><circle cx="128" cy="190" r="20" fill="url(#dc9d6df)"/><circle cx="128" cy="190" r="5" fill="#2b4352" stroke-width="2"/><path d="M128 92 L128 64" fill="none" stroke="#8fb4c4" stroke-width="4"/><path d="M104 90 L152 90 L152 162 L104 162 Z" fill="url(#m6f99ac4050)"/><path d="M112 104 L144 104 L144 146 L112 146 Z" fill="#1c2d38" stroke-width="2"/></g>
<g id="accent" stroke="#0b1722" stroke-width="3" stroke-linejoin="round" stroke-linecap="round"><path d="M116 116 L140 116 L140 128 L116 128 Z" fill="url(#accent-fill)" stroke-width="2"/><circle cx="128" cy="62" r="6" fill="url(#accent-fill)" stroke-width="2"/><circle cx="144" cy="97" r="3.5" fill="url(#accent-fill)" stroke="none"/></g>
</svg>
