<?xml version="1.0" encoding="UTF-8"?>
<svg xmlns="http://www.w3.org/2000/svg" viewBox="0 0 256 256">
<defs><radialGradient id="glass" cx="0.35" cy="0.28" r="0.85"><stop offset="0" stop-color="#8fd0f0"/><stop offset="0.35" stop-color="#2f6a92"/><stop offset="1" stop-color="#0b1824"/></radialGradient><linearGradient id="shade" x1="0" y1="0" x2="0" y2="1"><stop offset="0" stop-color="#ffffff" stop-opacity="0.16"/><stop offset="0.55" stop-color="#ffffff" stop-opacity="0"/><stop offset="1" stop-color="#05080c" stop-opacity="0.38"/></linearGradient><radialGradient id="nozzle" cx="0.5" cy="0.25" r="0.9"><stop offset="0" stop-color="#ffd59a"/><stop offset="0.4" stop-color="#e2742f"/><stop offset="1" stop-color="#2a1a14"/></radialGradient><linearGradient id="l5d6874" x1="0" y1="0" x2="1" y2="0.35"><stop offset="0" stop-color="#9ba1a9"/><stop offset="0.45" stop-color="#5d6874"/><stop offset="1" stop-color="#30363c"/></linearGradient><linearGradient id="ld8dde3" x1="0" y1="0" x2="1" y2="0.35"><stop offset="0" stop-color="#e7eaee"/><stop offset="0.45" stop-color="#d8dde3"/><stop offset="1" stop-color="#707376"/></linearGradient><linearGradient id="la9b3be" x1="0" y1="0" x2="1" y2="0.35"><stop offset="0" stop-color="#cad0d7"/><stop offset="0.45" stop-color="#a9b3be"/><stop offset="1" stop-color="#585d63"/></linearGradient><radialGradient id="r5d6874" cx="0.35" cy="0.32" r="0.8"><stop offset="0" stop-color="#a6acb3"/><stop offset="0.5" stop-color="#5d6874"/><stop offset="1" stop-color="#2e343a"/></radialGradient><linearGradient id="accent-fill" x1="0" y1="0" x2="1" y2="1"><stop id="accent-light" offset="0" stop-color="#f2b393"/><stop id="accent-base" offset="0.5" stop-color="#e8743b"/><stop id="accent-dark" offset="1" stop-color="#8b4623"/></linearGradient></defs>
<g id="hull" stroke="#141a22" stroke-width="4" stroke-linejoin="round" stroke-linecap="round"><rect x="94.84" y="223.35" width="66.33" height="18.65" fill="url(#l5d6874)" />
<path d="M128 14 L140.44 43.02 L144.58 96.91 L161.16 107.27 L163.24 159.09 L188.11 175.67 L188.11 210.91 L163.24 217.13 L157.02 231.64 L98.98 231.64 L92.76 217.13 L67.89 210.91 L67.89 175.67 L92.76 159.09 L94.84 107.27 L111.42 96.91 L115.56 43.02 Z" fill="url(#ld8dde3)" />
<path d="M128 14 L140.44 43.02 L144.58 96.91 L161.16 107.27 L163.24 159.09 L188.11 175.67 L188.11 210.91 L163.24 217.13 L157.02 231.64 L98.98 231.64 L92.76 217.13 L67.89 210.91 L67.89 175.67 L92.76 159.09 L94.84 107.27 L111.42 96.91 L115.56 43.02 Z" fill="url(#shade)" stroke="none" /><path d="M128 35.76 L130.5 111.94 L129.3 201.17 L126.7 201.17 L125.5 111.94 Z" fill="#ffffff" fill-opacity="0.45" stroke="none" /><path d="M67.89 175.67 L92.76 161.16 L92.76 215.05 L67.89 210.91 Z" fill="url(#la9b3be)" />
<path d="M188.11 175.67 L163.24 161.16 L163.24 215.05 L188.11 210.91 Z" fill="url(#la9b3be)" />
<rect x="117.64" y="49.24" width="20.73" height="174.11" fill="url(#la9b3be)" />
<path d="M109.35 161.16 L146.65 161.16 L150.8 192.25 L105.2 192.25 Z" fill="url(#l5d6874)" />
<circle cx="128" cy="80.33" r="13.47" fill="url(#r5d6874)" stroke-width="3.5" />
<circle cx="128" cy="130.07" r="15.55" fill="url(#r5d6874)" stroke-width="3.5" />
<path d="M117.64 107.27 L138.36 107.27 M117.64 154.95 L138.36 154.95 M94.84 136.29 L117.64 136.29 M138.36 136.29 L161.16 136.29" fill="none" stroke="#3b4652" stroke-width="2.5" />
<path d="M67.89 175.67 L92.76 161.16 L92.76 168.42 L69.96 180.85 Z" fill="#ffffff" fill-opacity="0.45" stroke="none" />
<rect x="103.13" y="200.55" width="49.75" height="4.15" fill="#0e1318" stroke="none" />
<rect x="103.13" y="207.8" width="49.75" height="4.15" fill="#0e1318" stroke="none" />
<path d="M115.56 43.02 L111.42 96.91 L115.56 96.91 L119.71 47.16 Z" fill="#ffffff" fill-opacity="0.45" stroke="none" />
<ellipse cx="103.13" cy="238.5" rx="4.73" ry="3.2" fill="url(#nozzle)" stroke="none" /><ellipse cx="119.71" cy="238.5" rx="4.73" ry="3.2" fill="url(#nozzle)" stroke="none" /><ellipse cx="136.29" cy="238.5" rx="4.73" ry="3.2" fill="url(#nozzle)" stroke="none" /><ellipse cx="152.87" cy="238.5" rx="4.73" ry="3.2" fill="url(#nozzle)" stroke="none" /></g>
<g id="accent" stroke="#141a22" stroke-width="4" stroke-linejoin="round" stroke-linecap="round"><path d="M128 14 L136.29 32.65 L119.71 32.65 Z" fill="url(#accent-fill)" />
<rect x="113.49" y="169.45" width="29.02" height="10.36" fill="url(#accent-fill)" />
<circle cx="80.33" cy="196.4" r="6.22" stroke-width="2.8" fill="url(#accent-fill)" /><circle cx="175.67" cy="196.4" r="6.22" stroke-width="2.8" fill="url(#accent-fill)" /></g>
<g id="anchors"><line id="flame-main-1" x1="103.13" y1="242" x2="103.13" y2="268.95" stroke="#ff0000" stroke-width="12.44" /><line id="flame-main-2" x1="119.71" y1="242" x2="119.71" y2="268.95" stroke="#ff0000" stroke-width="12.44" /><line id="flame-main-3" x1="136.29" y1="242" x2="136.29" y2="268.95" stroke="#ff0000" stroke-width="12.44" /><line id="flame-main-4" x1="152.87" y1="242" x2="152.87" y2="268.95" stroke="#ff0000" stroke-width="12.44" /><line id="flame-reverse-1" x1="116.6" y1="53.38" x2="116.6" y2="30.58" stroke="#ff0000" stroke-width="6.22" /><line id="flame-reverse-2" x1="139.4" y1="53.38" x2="139.4" y2="30.58" stroke="#ff0000" stroke-width="6.22" /><line id="flame-side-1" x1="93.8" y1="111.42" x2="75.15" y2="111.42" stroke="#ff0000" stroke-width="6.22" /><line id="flame-side-2" x1="162.2" y1="111.42" x2="180.85" y2="111.42" stroke="#ff0000" stroke-width="6.22" /><line id="flame-side-3" x1="67.89" y1="194.33" x2="49.24" y2="194.33" stroke="#ff0000" stroke-width="6.22" /><line id="flame-side-4" x1="188.11" y1="194.33" x2="206.76" y2="194.33" stroke="#ff0000" stroke-width="6.22" /><circle id="turret-1" cx="128" cy="80.33" r="6" fill="#0000ff" /><circle id="turret-2" cx="128" cy="130.07" r="6" fill="#0000ff" /></g>
</svg>
