<?xml version="1.0" encoding="UTF-8"?>
<svg xmlns="http://www.w3.org/2000/svg" viewBox="0 0 512 512">
<defs><linearGradient id="accent-fill" x1="0" y1="0" x2="1" y2="1"><stop id="accent-light" offset="0" stop-color="#bff3ff"/><stop id="accent-base" offset="0.5" stop-color="#8be9ff"/><stop id="accent-dark" offset="1" stop-color="#538c99"/></linearGradient><linearGradient id="sheen" x1="0" y1="0" x2="1" y2="1"><stop offset="0" stop-color="#ffffff" stop-opacity="0.22"/><stop offset="0.5" stop-color="#ffffff" stop-opacity="0"/><stop offset="1" stop-color="#03070c" stop-opacity="0.4"/></linearGradient><linearGradient id="m98e5f45045" x1="0" y1="0" x2="1" y2="1"><stop offset="0" stop-color="#ccf2fa"/><stop offset="0.45" stop-color="#98e5f4"/><stop offset="1" stop-color="#547e86"/></linearGradient><linearGradient id="meafcff3045" x1="0" y1="0" x2="1" y2="1"><stop offset="0" stop-color="#f0fdff"/><stop offset="0.45" stop-color="#eafcff"/><stop offset="1" stop-color="#818b8c"/></linearGradient><radialGradient id="b4c8fa03060" cx="0.35" cy="0.32" r="0.8"><stop offset="0" stop-color="#82b1bc"/><stop offset="0.5" stop-color="#4c8fa0"/><stop offset="1" stop-color="#1e3940"/></radialGradient><linearGradient id="meafcff3050" x1="0" y1="0" x2="1" y2="1"><stop offset="0" stop-color="#f0fdff"/><stop offset="0.45" stop-color="#eafcff"/><stop offset="1" stop-color="#757e80"/></linearGradient></defs>
<g id="base" stroke="#062430" stroke-width="2.5" stroke-linejoin="round" stroke-linecap="round"><path d="M246 160 L266 160 L266 24 L246 24 Z" fill="url(#m98e5f45045)"/><path d="M250 106 L220 76 L226 70 L254 96 Z" fill="url(#m98e5f45045)" stroke-width="2"/><path d="M262 106 L292 76 L286 70 L258 96 Z" fill="url(#m98e5f45045)" stroke-width="2"/><path d="M250 60 L220 30 L226 24 L254 50 Z" fill="url(#m98e5f45045)" stroke-width="2"/><path d="M262 60 L292 30 L286 24 L258 50 Z" fill="url(#m98e5f45045)" stroke-width="2"/><path d="M266 352 L246 352 L246 488 L266 488 Z" fill="url(#m98e5f45045)"/><path d="M262 406 L292 436 L286 442 L258 416 Z" fill="url(#m98e5f45045)" stroke-width="2"/><path d="M250 406 L220 436 L226 442 L254 416 Z" fill="url(#m98e5f45045)" stroke-width="2"/><path d="M262 452 L292 482 L286 488 L258 462 Z" fill="url(#m98e5f45045)" stroke-width="2"/><path d="M250 452 L220 482 L226 488 L254 462 Z" fill="url(#m98e5f45045)" stroke-width="2"/><path d="M327.17 195.28 L344.17 224.72 L435.97 171.72 L418.97 142.28 Z" fill="url(#m98e5f45045)"/><path d="M347.96 183.28 L364.96 212.72 M368.74 171.28 L385.74 200.72 M389.53 159.28 L406.53 188.72 M410.31 147.28 L427.31 176.72" fill="none" stroke="#547e86" stroke-width="2"/><path d="M334.1 191.28 L337.1 196.47 L418.51 149.47 L415.51 144.28 Z" fill="#ffffff" fill-opacity="0.6" stroke="none"/><path d="M419.4 127.02 L449.4 178.98 L485.77 157.98 L455.77 106.02 Z" fill="#0e3140" stroke="none"/><path d="M402.01 120.89 L446.01 197.11 L492.77 170.11 L485.77 157.98 L451.13 177.98 L421.13 126.02 L455.77 106.02 L448.77 93.89 Z" fill="url(#m98e5f45045)"/><path d="M402.01 120.89 L446.01 197.11 L451.21 194.11 L407.21 117.89 Z" fill="#ffffff" fill-opacity="0.2" stroke="none"/><path d="M448.77 93.89 L402.01 120.89 L405.01 126.09 L446.58 102.09 L455.77 106.02 Z" fill="#ffffff" fill-opacity="0.55" stroke="none"/><path d="M368.68 185.17 L373.68 193.83 L365.02 198.83 L360.02 190.17 Z" fill="#ffc977" stroke-width="1.5"/><path d="M396.39 169.17 L401.39 177.83 L392.73 182.83 L387.73 174.17 Z" fill="#ffc977" stroke-width="1.5"/><path d="M344.17 287.28 L327.17 316.72 L418.97 369.72 L435.97 340.28 Z" fill="url(#m98e5f45045)"/><path d="M364.96 299.28 L347.96 328.72 M385.74 311.28 L368.74 340.72 M406.53 323.28 L389.53 352.72 M427.31 335.28 L410.31 364.72" fill="none" stroke="#547e86" stroke-width="2"/><path d="M351.1 291.28 L348.1 296.47 L429.51 343.47 L432.51 338.28 Z" fill="#ffffff" fill-opacity="0.6" stroke="none"/><path d="M449.4 333.02 L419.4 384.98 L455.77 405.98 L485.77 354.02 Z" fill="#0e3140" stroke="none"/><path d="M446.01 314.89 L402.01 391.11 L448.77 418.11 L455.77 405.98 L421.13 385.98 L451.13 334.02 L485.77 354.02 L492.77 341.89 Z" fill="url(#m98e5f45045)"/><path d="M446.01 314.89 L402.01 391.11 L407.21 394.11 L451.21 317.89 Z" fill="#ffffff" fill-opacity="0.2" stroke="none"/><path d="M492.77 341.89 L446.01 314.89 L443.01 320.09 L484.58 344.09 L485.77 354.02 Z" fill="#ffffff" fill-opacity="0.55" stroke="none"/><path d="M373.68 318.17 L368.68 326.83 L360.02 321.83 L365.02 313.17 Z" fill="#ffc977" stroke-width="1.5"/><path d="M401.39 334.17 L396.39 342.83 L387.73 337.83 L392.73 329.17 Z" fill="#ffc977" stroke-width="1.5"/><path d="M184.83 316.72 L167.83 287.28 L76.03 340.28 L93.03 369.72 Z" fill="url(#m98e5f45045)"/><path d="M164.04 328.72 L147.04 299.28 M143.26 340.72 L126.26 311.28 M122.47 352.72 L105.47 323.28 M101.69 364.72 L84.69 335.28" fill="none" stroke="#547e86" stroke-width="2"/><path d="M177.9 320.72 L174.9 315.53 L93.49 362.53 L96.49 367.72 Z" fill="#ffffff" fill-opacity="0.6" stroke="none"/><path d="M92.6 384.98 L62.6 333.02 L26.23 354.02 L56.23 405.98 Z" fill="#0e3140" stroke="none"/><path d="M109.99 391.11 L65.99 314.89 L19.23 341.89 L26.23 354.02 L60.87 334.02 L90.87 385.98 L56.23 405.98 L63.23 418.11 Z" fill="url(#m98e5f45045)"/><path d="M109.99 391.11 L65.99 314.89 L60.79 317.89 L104.79 394.11 Z" fill="#ffffff" fill-opacity="0.2" stroke="none"/><path d="M63.23 418.11 L109.99 391.11 L106.99 385.91 L65.42 409.91 L56.23 405.98 Z" fill="#ffffff" fill-opacity="0.55" stroke="none"/><path d="M143.32 326.83 L138.32 318.17 L146.98 313.17 L151.98 321.83 Z" fill="#ffc977" stroke-width="1.5"/><path d="M115.61 342.83 L110.61 334.17 L119.27 329.17 L124.27 337.83 Z" fill="#ffc977" stroke-width="1.5"/><path d="M167.83 224.72 L184.83 195.28 L93.03 142.28 L76.03 171.72 Z" fill="url(#m98e5f45045)"/><path d="M147.04 212.72 L164.04 183.28 M126.26 200.72 L143.26 171.28 M105.47 188.72 L122.47 159.28 M84.69 176.72 L101.69 147.28" fill="none" stroke="#547e86" stroke-width="2"/><path d="M160.9 220.72 L163.9 215.53 L82.49 168.53 L79.49 173.72 Z" fill="#ffffff" fill-opacity="0.6" stroke="none"/><path d="M62.6 178.98 L92.6 127.02 L56.23 106.02 L26.23 157.98 Z" fill="#0e3140" stroke="none"/><path d="M65.99 197.11 L109.99 120.89 L63.23 93.89 L56.23 106.02 L90.87 126.02 L60.87 177.98 L26.23 157.98 L19.23 170.11 Z" fill="url(#m98e5f45045)"/><path d="M65.99 197.11 L109.99 120.89 L104.79 117.89 L60.79 194.11 Z" fill="#ffffff" fill-opacity="0.2" stroke="none"/><path d="M19.23 170.11 L65.99 197.11 L68.99 191.91 L27.42 167.91 L26.23 157.98 Z" fill="#ffffff" fill-opacity="0.55" stroke="none"/><path d="M138.32 193.83 L143.32 185.17 L151.98 190.17 L146.98 198.83 Z" fill="#ffc977" stroke-width="1.5"/><path d="M110.61 177.83 L115.61 169.17 L124.27 174.17 L119.27 182.83 Z" fill="#ffc977" stroke-width="1.5"/><path d="M256 152 L346.07 204 L346.07 308 L256 360 L165.93 308 L165.93 204 Z" fill="url(#m98e5f45045)"/><path d="M256 152 L346.07 204 L346.07 308 L256 360 L165.93 308 L165.93 204 Z" fill="url(#sheen)" stroke="none"/><path d="M256 178 L323.55 217 L323.55 295 L256 334 L188.45 295 L188.45 217 Z" fill="url(#meafcff3045)" stroke-width="2"/><path d="M256 178 L256 152 M323.55 217 L346.07 204 M323.55 295 L346.07 308 M256 334 L256 360 M188.45 295 L165.93 308 M188.45 217 L165.93 204" fill="none" stroke="#4c8fa0" stroke-width="2"/><circle cx="295.63" cy="187.36" r="5" fill="#ffc977" stroke-width="1.5"/><circle cx="335.26" cy="256" r="5" fill="#ffc977" stroke-width="1.5"/><circle cx="295.63" cy="324.64" r="5" fill="#ffc977" stroke-width="1.5"/><circle cx="216.37" cy="324.64" r="5" fill="#ffc977" stroke-width="1.5"/><circle cx="176.74" cy="256" r="5" fill="#ffc977" stroke-width="1.5"/><circle cx="216.37" cy="187.36" r="5" fill="#ffc977" stroke-width="1.5"/><circle cx="256" cy="256" r="54" fill="url(#b4c8fa03060)"/></g>
<g id="accent" stroke="#062430" stroke-width="2.5" stroke-linejoin="round" stroke-linecap="round"><circle cx="222" cy="72" r="4" fill="url(#accent-fill)" stroke-width="1.5"/><circle cx="290" cy="72" r="4" fill="url(#accent-fill)" stroke-width="1.5"/><circle cx="222" cy="26" r="4" fill="url(#accent-fill)" stroke-width="1.5"/><circle cx="290" cy="26" r="4" fill="url(#accent-fill)" stroke-width="1.5"/><circle cx="256" cy="18" r="8" fill="url(#accent-fill)" stroke-width="2"/><circle cx="290" cy="440" r="4" fill="url(#accent-fill)" stroke-width="1.5"/><circle cx="222" cy="440" r="4" fill="url(#accent-fill)" stroke-width="1.5"/><circle cx="290" cy="486" r="4" fill="url(#accent-fill)" stroke-width="1.5"/><circle cx="222" cy="486" r="4" fill="url(#accent-fill)" stroke-width="1.5"/><circle cx="256" cy="494" r="8" fill="url(#accent-fill)" stroke-width="2"/><path d="M448.54 97.49 L452.54 104.42 L440.42 111.42 L436.42 104.49 Z" fill="url(#accent-fill)" stroke-width="1.5"/><path d="M485.54 161.58 L489.54 168.51 L477.42 175.51 L473.42 168.58 Z" fill="url(#accent-fill)" stroke-width="1.5"/><path d="M431.33 131.68 L451.33 166.32 L446.13 169.32 L426.13 134.68 Z" fill="url(#accent-fill)" stroke-width="1.5"/><path d="M489.54 343.49 L485.54 350.42 L473.42 343.42 L477.42 336.49 Z" fill="url(#accent-fill)" stroke-width="1.5"/><path d="M452.54 407.58 L448.54 414.51 L436.42 407.51 L440.42 400.58 Z" fill="url(#accent-fill)" stroke-width="1.5"/><path d="M451.33 345.68 L431.33 380.32 L426.13 377.32 L446.13 342.68 Z" fill="url(#accent-fill)" stroke-width="1.5"/><path d="M63.46 414.51 L59.46 407.58 L71.58 400.58 L75.58 407.51 Z" fill="url(#accent-fill)" stroke-width="1.5"/><path d="M26.46 350.42 L22.46 343.49 L34.58 336.49 L38.58 343.42 Z" fill="url(#accent-fill)" stroke-width="1.5"/><path d="M80.67 380.32 L60.67 345.68 L65.87 342.68 L85.87 377.32 Z" fill="url(#accent-fill)" stroke-width="1.5"/><path d="M22.46 168.51 L26.46 161.58 L38.58 168.58 L34.58 175.51 Z" fill="url(#accent-fill)" stroke-width="1.5"/><path d="M59.46 104.42 L63.46 97.49 L75.58 104.49 L71.58 111.42 Z" fill="url(#accent-fill)" stroke-width="1.5"/><path d="M60.67 166.32 L80.67 131.68 L85.87 134.68 L65.87 169.32 Z" fill="url(#accent-fill)" stroke-width="1.5"/><circle cx="256" cy="256" r="40" fill="url(#accent-fill)"/><ellipse cx="242.8" cy="241.6" rx="8.8" ry="12" fill="#ffffff" fill-opacity="0.55" stroke="none"/><circle cx="271.2" cy="272" r="4" fill="#ffffff" fill-opacity="0.3" stroke="none"/><path d="M256 242 L256 222 M268.12 249 L285.44 239 M268.12 263 L285.44 273 M256 270 L256 290 M243.88 263 L226.56 273 M243.88 249 L226.56 239" fill="none" stroke="#ffffff" stroke-width="2.5" stroke-opacity="0.6"/></g>
<g id="spin" stroke="#062430" stroke-width="2.5" stroke-linejoin="round" stroke-linecap="round"><path d="M326 134.76 L396 256 L326 377.24 L186 377.24 L116 256 L186 134.76 Z M193 146.88 L130 256 L193 365.12 L319 365.12 L382 256 L319 146.88 Z" fill="url(#meafcff3050)" fill-rule="evenodd"/><circle cx="322.5" cy="140.82" r="6" fill="url(#accent-fill)" stroke-width="1.5"/><circle cx="389" cy="256" r="6" fill="url(#accent-fill)" stroke-width="1.5"/><circle cx="322.5" cy="371.18" r="6" fill="url(#accent-fill)" stroke-width="1.5"/><circle cx="189.5" cy="371.18" r="6" fill="url(#accent-fill)" stroke-width="1.5"/><circle cx="123" cy="256" r="6" fill="url(#accent-fill)" stroke-width="1.5"/><circle cx="189.5" cy="140.82" r="6" fill="url(#accent-fill)" stroke-width="1.5"/></g>
<g id="anchors"><circle id="dock-1" cx="453.45" cy="142" r="6" fill="#0000ff"/><circle id="dock-2" cx="453.45" cy="370" r="6" fill="#0000ff"/><circle id="dock-3" cx="58.55" cy="370" r="6" fill="#0000ff"/><circle id="dock-4" cx="58.55" cy="142" r="6" fill="#0000ff"/></g>
</svg>
