<?xml version="1.0" encoding="UTF-8"?>
<svg xmlns="http://www.w3.org/2000/svg" viewBox="0 0 256 256">
<defs><radialGradient id="rock" cx="0.36" cy="0.3" r="0.8"><stop offset="0" stop-color="#8e93b8"/><stop offset="0.55" stop-color="#4a4f75"/><stop offset="1" stop-color="#151830"/></radialGradient><linearGradient id="d4a4f75" x1="0" y1="0" x2="1" y2="1"><stop offset="0" stop-color="#212435"/><stop offset="0.55" stop-color="#4a4f75"/><stop offset="1" stop-color="#898da5"/></linearGradient><linearGradient id="mc8d6ff4045" x1="0" y1="0" x2="1" y2="1"><stop offset="0" stop-color="#dee6ff"/><stop offset="0.45" stop-color="#c8d6ff"/><stop offset="1" stop-color="#6e768c"/></linearGradient></defs>
<g id="base" stroke="#0a0d22" stroke-width="3" stroke-linejoin="round" stroke-linecap="round"><path d="M93.21 65.44 Q113.39 61.05 137.3 62.58 Q161.2 64.12 179.73 73.72 Q198.25 83.32 209.63 101.88 Q221 120.44 215.87 133.02 Q210.75 145.6 194.33 160.65 Q177.91 175.7 161.14 185.32 Q144.37 194.95 123.96 193.48 Q103.56 192.01 79.09 184.98 Q54.62 177.95 44.91 157.83 Q35.19 137.71 36.25 128.41 Q37.31 119.11 36.15 100.98 Q35 82.85 54.02 76.34 Q73.03 69.83 93.21 65.44 Z" fill="url(#rock)"/><path d="M109.11 90.24 Q123.64 87.08 140.85 88.18 Q158.07 89.28 171.4 96.2 Q184.74 103.11 192.93 116.47 Q201.12 129.84 197.43 138.89 Q193.74 147.95 181.92 158.79 Q170.09 169.62 158.02 176.55 Q145.95 183.48 131.25 182.43 Q116.56 181.37 98.94 176.31 Q81.32 171.24 74.33 156.76 Q67.34 142.27 68.1 135.57 Q68.86 128.88 68.03 115.82 Q67.2 102.77 80.89 98.08 Q94.58 93.4 109.11 90.24 Z" fill="#000000" fill-opacity="0.2" stroke="none"/><path d="M97.61 81.72 Q107.69 79.52 119.65 80.29 Q131.6 81.06 140.86 85.86 Q150.13 90.66 155.81 99.94 Q161.5 109.22 158.94 115.51 Q156.37 121.8 148.16 129.32 Q139.95 136.85 131.57 141.66 Q123.19 146.48 112.98 145.74 Q102.78 145.01 90.54 141.49 Q78.31 137.98 73.45 127.91 Q68.6 117.85 69.13 113.2 Q69.65 108.55 69.08 99.49 Q68.5 90.43 78.01 87.17 Q87.52 83.91 97.61 81.72 Z" fill="#ffffff" fill-opacity="0.1" stroke="none"/><ellipse cx="96.27" cy="109.53" rx="9" ry="7.56" fill="url(#d4a4f75)" stroke="#212435" stroke-width="2"/><ellipse cx="97.89" cy="111.33" rx="4.05" ry="3.15" fill="#000000" fill-opacity="0.18" stroke="none"/><ellipse cx="153.85" cy="142.81" rx="10.41" ry="8.74" fill="url(#d4a4f75)" stroke="#212435" stroke-width="2"/><ellipse cx="155.72" cy="144.89" rx="4.68" ry="3.64" fill="#000000" fill-opacity="0.18" stroke="none"/><path d="M116.74 185.27 L99.63 216.69 L83.52 225.38 L82.07 207.13 L99.17 175.71 L110.82 175.22 Z" fill="url(#mc8d6ff4045)" stroke-width="2"/><path d="M116.74 185.27 L99.63 216.69 L83.52 225.38 L107.96 180.49 Z" fill="#ffffff" fill-opacity="0.3" stroke="none"/><path d="M51.27 130.42 L17.69 122.26 L5.66 109.04 L22.41 102.82 L55.99 110.99 L59.46 122.13 Z" fill="url(#mc8d6ff4045)" stroke-width="2"/><path d="M51.27 130.42 L17.69 122.26 L5.66 109.04 L53.63 120.71 Z" fill="#ffffff" fill-opacity="0.3" stroke="none"/><path d="M107.52 78.36 L90.51 50.88 L91.73 33.85 L107.52 40.36 L124.52 67.84 L119.18 78.2 Z" fill="url(#mc8d6ff4045)" stroke-width="2"/><path d="M107.52 78.36 L90.51 50.88 L91.73 33.85 L116.02 73.1 Z" fill="#ffffff" fill-opacity="0.3" stroke="none"/><path d="M93.21 65.44 Q113.39 61.05 137.3 62.58 Q161.2 64.12 179.73 73.72 Q198.25 83.32 209.63 101.88 Q221 120.44 215.87 133.02 Q210.75 145.6 194.33 160.65 Q177.91 175.7 161.14 185.32 Q144.37 194.95 123.96 193.48 Q103.56 192.01 79.09 184.98 Q54.62 177.95 44.91 157.83 Q35.19 137.71 36.25 128.41 Q37.31 119.11 36.15 100.98 Q35 82.85 54.02 76.34 Q73.03 69.83 93.21 65.44 Z" fill="none"/></g>
<g id="accent"/>
</svg>
