<?xml version="1.0" encoding="UTF-8"?>
<svg xmlns="http://www.w3.org/2000/svg" viewBox="0 0 256 256">
<g id="base" stroke="#0a0d22" stroke-width="3" stroke-linejoin="round" stroke-linecap="round"><path d="M139.14 83.59 L199.5 112.18 L168.45 114.7 L132.09 101.66 Z" fill="#6d73a0" stroke="#1a1f44" stroke-width="2" fill-opacity="0.9"/><path d="M199.5 112.18 L218 168.2 L171.99 143.82 L168.45 114.7 Z" fill="#393f76" stroke="#1a1f44" stroke-width="2" fill-opacity="0.9"/><path d="M218 168.2 L132.56 172.41 L127.27 147.54 L171.99 143.82 Z" fill="#2a2f6a" stroke="#1a1f44" stroke-width="2" fill-opacity="0.9"/><path d="M132.56 172.41 L69.59 154.35 L90.73 138.96 L127.27 147.54 Z" fill="#6e75a1" stroke="#1a1f44" stroke-width="2" fill-opacity="0.9"/><path d="M69.59 154.35 L38 105.76 L79.87 110.73 L90.73 138.96 Z" fill="#afb7d5" stroke="#1a1f44" stroke-width="2" fill-opacity="0.9"/><path d="M38 105.76 L139.14 83.59 L132.09 101.66 L79.87 110.73 Z" fill="#c8cfe8" stroke="#1a1f44" stroke-width="2" fill-opacity="0.9"/><path d="M132.09 101.66 L168.45 114.7 L171.99 143.82 L127.27 147.54 Z" fill="#bbc2de" stroke="#1a1f44" stroke-width="2" fill-opacity="0.9"/><path d="M127.27 147.54 L90.73 138.96 L79.87 110.73 L132.09 101.66 Z" fill="#9da4c6" stroke="#1a1f44" stroke-width="2" fill-opacity="0.9"/><path d="M206.57 104.04 L199.53 137.3 L165.23 127.16 L174.5 109.24 Z" fill="#474c81" stroke="#1a1f44" stroke-width="2" fill-opacity="0.9"/><path d="M199.53 137.3 L160.96 183.26 L139.18 149.95 L165.23 127.16 Z" fill="#2c316c" stroke="#1a1f44" stroke-width="2" fill-opacity="0.9"/><path d="M160.96 183.26 L129.43 195.96 L125.87 158.34 L139.18 149.95 Z" fill="#343972" stroke="#1a1f44" stroke-width="2" fill-opacity="0.9"/><path d="M129.43 195.96 L136.47 162.7 L128.69 145.52 L125.87 158.34 Z" fill="#3c4178" stroke="#1a1f44" stroke-width="2" fill-opacity="0.9"/><path d="M136.47 162.7 L175.04 116.74 L148.58 117.3 L128.69 145.52 Z" fill="#30356f" stroke="#1a1f44" stroke-width="2" fill-opacity="0.9"/><path d="M175.04 116.74 L206.57 104.04 L174.5 109.24 L148.58 117.3 Z" fill="#52588a" stroke="#1a1f44" stroke-width="2" fill-opacity="0.9"/><path d="M174.5 109.24 L165.23 127.16 L139.18 149.95 L125.87 158.34 Z" fill="#bbc2de" stroke="#1a1f44" stroke-width="2" fill-opacity="0.9"/><path d="M125.87 158.34 L128.69 145.52 L148.58 117.3 L174.5 109.24 Z" fill="#9da4c6" stroke="#1a1f44" stroke-width="2" fill-opacity="0.9"/><path d="M206.57 104.04 L199.53 137.3 L160.96 183.26 L129.43 195.96 L136.47 162.7 L175.04 116.74 Z" fill="none"/><path d="M139.14 83.59 L199.5 112.18 L218 168.2 L132.56 172.41 L69.59 154.35 L38 105.76 Z" fill="none"/></g>
<g id="accent"/>
</svg>
