<?xml version="1.0" encoding="UTF-8"?>
<svg xmlns="http://www.w3.org/2000/svg" viewBox="0 0 512 512">
<defs><linearGradient id="accent-fill" x1="0" y1="0" x2="1" y2="1"><stop id="accent-light" offset="0" stop-color="#c9ffc8"/><stop id="accent-base" offset="0.5" stop-color="#9dff9b"/><stop id="accent-dark" offset="1" stop-color="#5e995d"/></linearGradient><linearGradient id="leaf" x1="0" y1="0" x2="1" y2="1"><stop offset="0" stop-color="#b9eaa4"/><stop offset="0.5" stop-color="#5fa66a"/><stop offset="1" stop-color="#1f4a2c"/></linearGradient><linearGradient id="m3f7a4e3550" x1="0" y1="0" x2="1" y2="1"><stop offset="0" stop-color="#82a98c"/><stop offset="0.45" stop-color="#3f7a4e"/><stop offset="1" stop-color="#203d27"/></linearGradient><linearGradient id="ma8dc963050" x1="0" y1="0" x2="1" y2="1"><stop offset="0" stop-color="#c2e6b6"/><stop offset="0.45" stop-color="#a8dc96"/><stop offset="1" stop-color="#546e4b"/></linearGradient><radialGradient id="b3f7a4e3060" cx="0.35" cy="0.32" r="0.8"><stop offset="0" stop-color="#79a283"/><stop offset="0.5" stop-color="#3f7a4e"/><stop offset="1" stop-color="#19311f"/></radialGradient><linearGradient id="m7cc67f3550" x1="0" y1="0" x2="1" y2="1"><stop offset="0" stop-color="#aadaac"/><stop offset="0.45" stop-color="#7cc67f"/><stop offset="1" stop-color="#3e6340"/></linearGradient></defs>
<g id="base" stroke="#071a10" stroke-width="2.5" stroke-linejoin="round" stroke-linecap="round"><path d="M307.62 176.1 Q302.67 209.33 335.9 204.38 Q369.14 199.43 392.47 180.34 Q415.81 161.25 422.88 134.38 Q429.95 107.51 429.24 95.49 Q428.53 83.47 416.51 82.76 Q404.49 82.05 377.62 89.12 Q350.75 96.19 331.66 119.53 Q312.57 142.86 307.62 176.1 Z" fill="url(#leaf)"/><path d="M309.74 202.26 L420.05 91.95 M333.78 178.22 L336.61 132.96 M333.78 178.22 L379.04 175.39 M362.07 149.93 L364.89 104.68 M362.07 149.93 L407.32 147.11 M390.35 121.65 L393.18 76.39 M390.35 121.65 L435.61 118.82" fill="none" stroke="#1f4a2c" stroke-width="2.5"/><path d="M335.9 307.62 Q302.67 302.67 307.62 335.9 Q312.57 369.14 331.66 392.47 Q350.75 415.81 377.62 422.88 Q404.49 429.95 416.51 429.24 Q428.53 428.53 429.24 416.51 Q429.95 404.49 422.88 377.62 Q415.81 350.75 392.47 331.66 Q369.14 312.57 335.9 307.62 Z" fill="url(#leaf)"/><path d="M309.74 309.74 L420.05 420.05 M333.78 333.78 L379.04 336.61 M333.78 333.78 L336.61 379.04 M362.07 362.07 L407.32 364.89 M362.07 362.07 L364.89 407.32 M390.35 390.35 L435.61 393.18 M390.35 390.35 L393.18 435.61" fill="none" stroke="#1f4a2c" stroke-width="2.5"/><path d="M204.38 335.9 Q209.33 302.67 176.1 307.62 Q142.86 312.57 119.53 331.66 Q96.19 350.75 89.12 377.62 Q82.05 404.49 82.76 416.51 Q83.47 428.53 95.49 429.24 Q107.51 429.95 134.38 422.88 Q161.25 415.81 180.34 392.47 Q199.43 369.14 204.38 335.9 Z" fill="url(#leaf)"/><path d="M202.26 309.74 L91.95 420.05 M178.22 333.78 L175.39 379.04 M178.22 333.78 L132.96 336.61 M149.93 362.07 L147.11 407.32 M149.93 362.07 L104.68 364.89 M121.65 390.35 L118.82 435.61 M121.65 390.35 L76.39 393.18" fill="none" stroke="#1f4a2c" stroke-width="2.5"/><path d="M176.1 204.38 Q209.33 209.33 204.38 176.1 Q199.43 142.86 180.34 119.53 Q161.25 96.19 134.38 89.12 Q107.51 82.05 95.49 82.76 Q83.47 83.47 82.76 95.49 Q82.05 107.51 89.12 134.38 Q96.19 161.25 119.53 180.34 Q142.86 199.43 176.1 204.38 Z" fill="url(#leaf)"/><path d="M202.26 202.26 L91.95 91.95 M178.22 178.22 L132.96 175.39 M178.22 178.22 L175.39 132.96 M149.93 149.93 L104.68 147.11 M149.93 149.93 L147.11 104.68 M121.65 121.65 L76.39 118.82 M121.65 121.65 L118.82 76.39" fill="none" stroke="#1f4a2c" stroke-width="2.5"/><path d="M242 116 Q244 172 256 172 Q268 172 270 116 Q272 60 256 60 Q240 60 242 116 Z" fill="url(#m3f7a4e3550)"/><path d="M256 160 L256 66" fill="none" stroke="#1f4a2c" stroke-width="2"/><path d="M226 50 L286 50 L286 8 L226 8 Z" fill="#0e2a1c" stroke="none"/><path d="M212 35 Q212 62 256 62 Q300 62 300 35 Q300 8 293 8 Q286 8 286 28 Q286 48 256 48 Q226 48 226 28 Q226 8 219 8 Q212 8 212 35 Z" fill="url(#leaf)"/><path d="M396 242 Q340 244 340 256 Q340 268 396 270 Q452 272 452 256 Q452 240 396 242 Z" fill="url(#m3f7a4e3550)"/><path d="M352 256 L446 256" fill="none" stroke="#1f4a2c" stroke-width="2"/><path d="M462 226 L462 286 L504 286 L504 226 Z" fill="#0e2a1c" stroke="none"/><path d="M477 212 Q450 212 450 256 Q450 300 477 300 Q504 300 504 293 Q504 286 484 286 Q464 286 464 256 Q464 226 484 226 Q504 226 504 219 Q504 212 477 212 Z" fill="url(#leaf)"/><path d="M270 396 Q268 340 256 340 Q244 340 242 396 Q240 452 256 452 Q272 452 270 396 Z" fill="url(#m3f7a4e3550)"/><path d="M256 352 L256 446" fill="none" stroke="#1f4a2c" stroke-width="2"/><path d="M286 462 L226 462 L226 504 L286 504 Z" fill="#0e2a1c" stroke="none"/><path d="M300 477 Q300 450 256 450 Q212 450 212 477 Q212 504 219 504 Q226 504 226 484 Q226 464 256 464 Q286 464 286 484 Q286 504 293 504 Q300 504 300 477 Z" fill="url(#leaf)"/><path d="M116 270 Q172 268 172 256 Q172 244 116 242 Q60 240 60 256 Q60 272 116 270 Z" fill="url(#m3f7a4e3550)"/><path d="M160 256 L66 256" fill="none" stroke="#1f4a2c" stroke-width="2"/><path d="M50 286 L50 226 L8 226 L8 286 Z" fill="#0e2a1c" stroke="none"/><path d="M35 300 Q62 300 62 256 Q62 212 35 212 Q8 212 8 219 Q8 226 28 226 Q48 226 48 256 Q48 286 28 286 Q8 286 8 293 Q8 300 35 300 Z" fill="url(#leaf)"/><path d="M272.24 188.04 Q276.66 206.11 292.57 196.46 Q308.47 186.81 304.81 166.9 Q301.16 146.98 284.49 158.48 Q267.82 169.98 272.24 188.04 Z" fill="url(#ma8dc963050)"/><path d="M315.54 219.43 Q305.89 235.34 323.96 239.76 Q342.02 244.18 353.52 227.51 Q365.02 210.84 345.1 207.19 Q325.19 203.53 315.54 219.43 Z" fill="url(#ma8dc963050)"/><path d="M323.96 272.24 Q305.89 276.66 315.54 292.57 Q325.19 308.47 345.1 304.81 Q365.02 301.16 353.52 284.49 Q342.02 267.82 323.96 272.24 Z" fill="url(#ma8dc963050)"/><path d="M292.57 315.54 Q276.66 305.89 272.24 323.96 Q267.82 342.02 284.49 353.52 Q301.16 365.02 304.81 345.1 Q308.47 325.19 292.57 315.54 Z" fill="url(#ma8dc963050)"/><path d="M239.76 323.96 Q235.34 305.89 219.43 315.54 Q203.53 325.19 207.19 345.1 Q210.84 365.02 227.51 353.52 Q244.18 342.02 239.76 323.96 Z" fill="url(#ma8dc963050)"/><path d="M196.46 292.57 Q206.11 276.66 188.04 272.24 Q169.98 267.82 158.48 284.49 Q146.98 301.16 166.9 304.81 Q186.81 308.47 196.46 292.57 Z" fill="url(#ma8dc963050)"/><path d="M188.04 239.76 Q206.11 235.34 196.46 219.43 Q186.81 203.53 166.9 207.19 Q146.98 210.84 158.48 227.51 Q169.98 244.18 188.04 239.76 Z" fill="url(#ma8dc963050)"/><path d="M219.43 196.46 Q235.34 206.11 239.76 188.04 Q244.18 169.98 227.51 158.48 Q210.84 146.98 207.19 166.9 Q203.53 186.81 219.43 196.46 Z" fill="url(#ma8dc963050)"/><circle cx="256" cy="256" r="56" fill="url(#b3f7a4e3060)"/></g>
<g id="accent" stroke="#071a10" stroke-width="2.5" stroke-linejoin="round" stroke-linecap="round"><circle cx="422.88" cy="89.12" r="6" fill="url(#accent-fill)" stroke-width="1.5"/><circle cx="346.51" cy="134.38" r="3.2" fill="url(#accent-fill)" stroke="none"/><circle cx="377.62" cy="165.49" r="3.2" fill="url(#accent-fill)" stroke="none"/><circle cx="379.04" cy="101.85" r="3.2" fill="url(#accent-fill)" stroke="none"/><circle cx="410.15" cy="132.96" r="3.2" fill="url(#accent-fill)" stroke="none"/><circle cx="422.88" cy="422.88" r="6" fill="url(#accent-fill)" stroke-width="1.5"/><circle cx="377.62" cy="346.51" r="3.2" fill="url(#accent-fill)" stroke="none"/><circle cx="346.51" cy="377.62" r="3.2" fill="url(#accent-fill)" stroke="none"/><circle cx="410.15" cy="379.04" r="3.2" fill="url(#accent-fill)" stroke="none"/><circle cx="379.04" cy="410.15" r="3.2" fill="url(#accent-fill)" stroke="none"/><circle cx="89.12" cy="422.88" r="6" fill="url(#accent-fill)" stroke-width="1.5"/><circle cx="165.49" cy="377.62" r="3.2" fill="url(#accent-fill)" stroke="none"/><circle cx="134.38" cy="346.51" r="3.2" fill="url(#accent-fill)" stroke="none"/><circle cx="132.96" cy="410.15" r="3.2" fill="url(#accent-fill)" stroke="none"/><circle cx="101.85" cy="379.04" r="3.2" fill="url(#accent-fill)" stroke="none"/><circle cx="89.12" cy="89.12" r="6" fill="url(#accent-fill)" stroke-width="1.5"/><circle cx="134.38" cy="165.49" r="3.2" fill="url(#accent-fill)" stroke="none"/><circle cx="165.49" cy="134.38" r="3.2" fill="url(#accent-fill)" stroke="none"/><circle cx="101.85" cy="132.96" r="3.2" fill="url(#accent-fill)" stroke="none"/><circle cx="132.96" cy="101.85" r="3.2" fill="url(#accent-fill)" stroke="none"/><path d="M215 10 L223 10 L223 24 L215 24 Z" fill="url(#accent-fill)" stroke-width="1.5"/><path d="M289 10 L297 10 L297 24 L289 24 Z" fill="url(#accent-fill)" stroke-width="1.5"/><path d="M236 42 L276 42 L276 48 L236 48 Z" fill="url(#accent-fill)" stroke-width="1.5"/><path d="M502 215 L502 223 L488 223 L488 215 Z" fill="url(#accent-fill)" stroke-width="1.5"/><path d="M502 289 L502 297 L488 297 L488 289 Z" fill="url(#accent-fill)" stroke-width="1.5"/><path d="M470 236 L470 276 L464 276 L464 236 Z" fill="url(#accent-fill)" stroke-width="1.5"/><path d="M297 502 L289 502 L289 488 L297 488 Z" fill="url(#accent-fill)" stroke-width="1.5"/><path d="M223 502 L215 502 L215 488 L223 488 Z" fill="url(#accent-fill)" stroke-width="1.5"/><path d="M276 470 L236 470 L236 464 L276 464 Z" fill="url(#accent-fill)" stroke-width="1.5"/><path d="M10 297 L10 289 L24 289 L24 297 Z" fill="url(#accent-fill)" stroke-width="1.5"/><path d="M10 223 L10 215 L24 215 L24 223 Z" fill="url(#accent-fill)" stroke-width="1.5"/><path d="M42 276 L42 236 L48 236 L48 276 Z" fill="url(#accent-fill)" stroke-width="1.5"/><circle cx="256" cy="256" r="40" fill="url(#accent-fill)"/><ellipse cx="242.8" cy="241.6" rx="8.8" ry="12" fill="#ffffff" fill-opacity="0.55" stroke="none"/><circle cx="271.2" cy="272" r="4" fill="#ffffff" fill-opacity="0.3" stroke="none"/><circle cx="261.69" cy="234.75" r="4" fill="#ffffff" fill-opacity="0.35" stroke="none"/><circle cx="277.25" cy="250.31" r="4" fill="#ffffff" fill-opacity="0.35" stroke="none"/><circle cx="271.56" cy="271.56" r="4" fill="#ffffff" fill-opacity="0.35" stroke="none"/><circle cx="250.31" cy="277.25" r="4" fill="#ffffff" fill-opacity="0.35" stroke="none"/><circle cx="234.75" cy="261.69" r="4" fill="#ffffff" fill-opacity="0.35" stroke="none"/><circle cx="240.44" cy="240.44" r="4" fill="#ffffff" fill-opacity="0.35" stroke="none"/></g>
<g id="spin" stroke="#071a10" stroke-width="2.5" stroke-linejoin="round" stroke-linecap="round"><path d="M250.5 125 Q256 132 261.5 125 Q267 118 261.5 108 Q256 98 250.5 108 Q245 118 250.5 125 Z" fill="url(#m7cc67f3550)" stroke-width="2"/><circle cx="256" cy="115" r="2.8" fill="url(#accent-fill)" stroke="none"/><path d="M316.74 139.8 Q318 148.61 326.26 145.3 Q334.53 141.99 334.76 130.58 Q335 119.17 325.24 125.08 Q315.47 130.99 316.74 139.8 Z" fill="url(#m7cc67f3550)" stroke-width="2"/><circle cx="326.5" cy="133.89" r="2.8" fill="url(#accent-fill)" stroke="none"/><path d="M366.7 185.74 Q363.39 194 372.2 195.26 Q381.01 196.53 386.92 186.76 Q392.83 177 381.42 177.24 Q370.01 177.47 366.7 185.74 Z" fill="url(#m7cc67f3550)" stroke-width="2"/><circle cx="378.11" cy="185.5" r="2.8" fill="url(#accent-fill)" stroke="none"/><path d="M387 250.5 Q380 256 387 261.5 Q394 267 404 261.5 Q414 256 404 250.5 Q394 245 387 250.5 Z" fill="url(#m7cc67f3550)" stroke-width="2"/><circle cx="397" cy="256" r="2.8" fill="url(#accent-fill)" stroke="none"/><path d="M372.2 316.74 Q363.39 318 366.7 326.26 Q370.01 334.53 381.42 334.76 Q392.83 335 386.92 325.24 Q381.01 315.47 372.2 316.74 Z" fill="url(#m7cc67f3550)" stroke-width="2"/><circle cx="378.11" cy="326.5" r="2.8" fill="url(#accent-fill)" stroke="none"/><path d="M326.26 366.7 Q318 363.39 316.74 372.2 Q315.47 381.01 325.24 386.92 Q335 392.83 334.76 381.42 Q334.53 370.01 326.26 366.7 Z" fill="url(#m7cc67f3550)" stroke-width="2"/><circle cx="326.5" cy="378.11" r="2.8" fill="url(#accent-fill)" stroke="none"/><path d="M261.5 387 Q256 380 250.5 387 Q245 394 250.5 404 Q256 414 261.5 404 Q267 394 261.5 387 Z" fill="url(#m7cc67f3550)" stroke-width="2"/><circle cx="256" cy="397" r="2.8" fill="url(#accent-fill)" stroke="none"/><path d="M195.26 372.2 Q194 363.39 185.74 366.7 Q177.47 370.01 177.24 381.42 Q177 392.83 186.76 386.92 Q196.53 381.01 195.26 372.2 Z" fill="url(#m7cc67f3550)" stroke-width="2"/><circle cx="185.5" cy="378.11" r="2.8" fill="url(#accent-fill)" stroke="none"/><path d="M145.3 326.26 Q148.61 318 139.8 316.74 Q130.99 315.47 125.08 325.24 Q119.17 335 130.58 334.76 Q141.99 334.53 145.3 326.26 Z" fill="url(#m7cc67f3550)" stroke-width="2"/><circle cx="133.89" cy="326.5" r="2.8" fill="url(#accent-fill)" stroke="none"/><path d="M125 261.5 Q132 256 125 250.5 Q118 245 108 250.5 Q98 256 108 261.5 Q118 267 125 261.5 Z" fill="url(#m7cc67f3550)" stroke-width="2"/><circle cx="115" cy="256" r="2.8" fill="url(#accent-fill)" stroke="none"/><path d="M139.8 195.26 Q148.61 194 145.3 185.74 Q141.99 177.47 130.58 177.24 Q119.17 177 125.08 186.76 Q130.99 196.53 139.8 195.26 Z" fill="url(#m7cc67f3550)" stroke-width="2"/><circle cx="133.89" cy="185.5" r="2.8" fill="url(#accent-fill)" stroke="none"/><path d="M185.74 145.3 Q194 148.61 195.26 139.8 Q196.53 130.99 186.76 125.08 Q177 119.17 177.24 130.58 Q177.47 141.99 185.74 145.3 Z" fill="url(#m7cc67f3550)" stroke-width="2"/><circle cx="185.5" cy="133.89" r="2.8" fill="url(#accent-fill)" stroke="none"/></g>
<g id="anchors"><circle id="dock-1" cx="256" cy="28" r="6" fill="#0000ff"/><circle id="dock-2" cx="484" cy="256" r="6" fill="#0000ff"/><circle id="dock-3" cx="256" cy="484" r="6" fill="#0000ff"/><circle id="dock-4" cx="28" cy="256" r="6" fill="#0000ff"/></g>
</svg>
